<svg width="227" height="52" viewBox="0 0 227 52" fill="none" xmlns="http://www.w3.org/2000/svg">
<g clip-path="url(#clip0_50_233)">
<path d="M31.2 21.64C31.2 19.44 30.82 17.8 30.06 16.72C29.3 15.6 28.34 14.84 27.18 14.44C26.06 14.04 24.96 13.86 23.88 13.9L19.98 13.96C19.14 13.96 18.42 14.08 17.82 14.32C17.22 14.52 16.76 15 16.44 15.76C16.12 16.48 15.96 17.62 15.96 19.18V27.58L19.56 27.46C23.48 27.34 26.64 27.6 29.04 28.24C31.48 28.88 33.34 29.8 34.62 31C35.94 32.16 36.82 33.5 37.26 35.02C37.74 36.54 37.98 38.14 37.98 39.82C37.98 42.46 37.34 44.7 36.06 46.54C34.82 48.34 33.1 49.7 30.9 50.62C28.7 51.54 26.2 52 23.4 52H3V48.04C3.92 48 4.68 47.88 5.28 47.68C5.92 47.48 6.4 47.02 6.72 46.3C7.08 45.58 7.26 44.42 7.26 42.82V19.84C7.26 18.76 7.28 17.72 7.32 16.72C7.4 15.72 7.46 14.96 7.5 14.44C6.86 14.48 6.06 14.52 5.1 14.56C4.14 14.56 3.44 14.58 3 14.62V10H34.8L35.1 21.64H31.2ZM15.96 42.46C15.96 43.54 15.94 44.56 15.9 45.52C15.86 46.48 15.8 47.22 15.72 47.74C16.44 47.74 17.12 47.74 17.76 47.74C18.4 47.74 19.04 47.74 19.68 47.74C20.32 47.7 20.94 47.68 21.54 47.68C23.98 47.56 25.76 46.76 26.88 45.28C28 43.8 28.56 41.9 28.56 39.58C28.56 37.5 28.18 35.9 27.42 34.78C26.66 33.66 25.68 32.88 24.48 32.44C23.32 32 22.1 31.78 20.82 31.78C19.82 31.78 18.96 31.78 18.24 31.78C17.52 31.74 16.76 31.76 15.96 31.84V42.46ZM60.608 52C60.528 51.44 60.468 50.98 60.428 50.62C60.428 50.22 60.408 49.76 60.368 49.24C59.008 50.6 57.568 51.56 56.048 52.12C54.528 52.68 52.988 52.96 51.428 52.96C48.868 52.96 46.868 52.2 45.428 50.68C43.988 49.16 43.268 47.26 43.268 44.98C43.268 43.06 43.748 41.42 44.708 40.06C45.708 38.7 47.008 37.6 48.608 36.76C50.248 35.88 52.048 35.22 54.008 34.78C56.008 34.3 58.008 34.02 60.008 33.94V30.82C60.008 29.78 59.868 28.84 59.588 28C59.348 27.16 58.908 26.5 58.268 26.02C57.668 25.54 56.808 25.32 55.688 25.36C54.928 25.4 54.188 25.56 53.468 25.84C52.748 26.12 52.128 26.52 51.608 27.04C51.928 27.4 52.128 27.8 52.208 28.24C52.288 28.64 52.328 29 52.328 29.32C52.328 30.12 52.008 30.96 51.368 31.84C50.728 32.68 49.708 33.08 48.308 33.04C47.108 33 46.188 32.58 45.548 31.78C44.908 30.98 44.588 30.04 44.588 28.96C44.588 27.36 45.148 25.98 46.268 24.82C47.428 23.62 48.968 22.7 50.888 22.06C52.808 21.38 54.928 21.04 57.248 21.04C60.768 21.04 63.488 21.96 65.408 23.8C67.368 25.6 68.348 28.5 68.348 32.5C68.348 33.86 68.348 35.02 68.348 35.98C68.348 36.94 68.328 37.9 68.288 38.86C68.288 39.82 68.288 40.98 68.288 42.34C68.288 42.9 68.268 43.7 68.228 44.74C68.188 45.74 68.128 46.7 68.048 47.62C68.728 47.54 69.448 47.5 70.208 47.5C70.968 47.46 71.548 47.44 71.948 47.44V52H60.608ZM59.948 38.2C58.828 38.32 57.768 38.52 56.768 38.8C55.768 39.08 54.888 39.46 54.128 39.94C53.408 40.42 52.828 41 52.388 41.68C51.988 42.36 51.788 43.12 51.788 43.96C51.828 45.08 52.188 45.88 52.868 46.36C53.548 46.84 54.328 47.08 55.208 47.08C56.128 47.08 56.988 46.88 57.788 46.48C58.588 46.08 59.308 45.56 59.948 44.92C59.948 44.52 59.948 44.14 59.948 43.78C59.948 43.38 59.948 42.98 59.948 42.58C59.948 41.86 59.948 41.14 59.948 40.42C59.948 39.66 59.948 38.92 59.948 38.2ZM92.7928 25.9C91.7128 25.9 90.9128 26.12 90.3928 26.56C89.9128 27 89.5928 27.62 89.4328 28.42C89.3128 29.22 89.2528 30.16 89.2528 31.24V42.34C89.2528 42.9 89.2328 43.7 89.1928 44.74C89.1528 45.74 89.0928 46.7 89.0128 47.62C89.6528 47.54 90.3528 47.5 91.1128 47.5C91.9128 47.46 92.5128 47.44 92.9128 47.44V52H77.1928V48.1C78.3128 48.1 79.1128 47.88 79.5928 47.44C80.0728 47 80.3728 46.38 80.4928 45.58C80.6528 44.74 80.7328 43.8 80.7328 42.76V31.66C80.7328 31.1 80.7528 30.3 80.7928 29.26C80.8328 28.22 80.8928 27.26 80.9728 26.38C80.3328 26.42 79.6328 26.46 78.8728 26.5C78.1128 26.54 77.5128 26.56 77.0728 26.56V22H92.7928V25.9ZM101.673 27.04L104.553 30.04L87.3328 46.6L84.3928 43.54L101.673 27.04ZM112.233 25.9C111.153 25.9 110.353 26.12 109.833 26.56C109.353 27 109.033 27.62 108.873 28.42C108.753 29.22 108.693 30.16 108.693 31.24V42.34C108.693 42.9 108.673 43.7 108.633 44.74C108.593 45.74 108.533 46.7 108.453 47.62C109.093 47.54 109.793 47.5 110.553 47.5C111.353 47.46 111.953 47.44 112.353 47.44V52H96.6328V48.1C97.7528 48.1 98.5528 47.88 99.0328 47.44C99.5128 47 99.8128 46.38 99.9328 45.58C100.093 44.74 100.173 43.8 100.173 42.76V31.66C100.173 31.1 100.193 30.3 100.233 29.26C100.273 28.22 100.333 27.26 100.413 26.38C99.7728 26.42 99.0728 26.46 98.3128 26.5C97.5528 26.54 96.9528 26.56 96.5128 26.56V22H112.233V25.9ZM94.4728 17.2C91.6728 17.2 89.3728 16.64 87.5728 15.52C85.8128 14.4 84.9328 12.82 84.9328 10.78C84.9328 9.7 85.2128 8.82 85.7728 8.14C86.3328 7.42 87.1728 7.08 88.2928 7.12C89.2528 7.12 89.9728 7.36 90.4528 7.84C90.9728 8.28 91.3328 8.78 91.5328 9.34C91.7328 9.9 91.8328 10.34 91.8328 10.66C91.7928 11.02 91.7128 11.4 91.5928 11.8C91.5128 12.16 91.3528 12.56 91.1128 13C91.6728 13.48 92.1928 13.82 92.6728 14.02C93.1928 14.18 93.7928 14.26 94.4728 14.26C95.1528 14.26 95.7528 14.18 96.2728 14.02C96.7928 13.82 97.3128 13.48 97.8328 13C97.5928 12.56 97.4128 12.16 97.2928 11.8C97.2128 11.4 97.1528 11.02 97.1128 10.66C97.1128 10.34 97.1928 9.9 97.3528 9.34C97.5528 8.78 97.9128 8.28 98.4328 7.84C98.9528 7.36 99.6728 7.12 100.593 7.12C101.753 7.08 102.613 7.42 103.173 8.14C103.733 8.82 104.013 9.7 104.013 10.78C104.013 12.82 103.113 14.4 101.313 15.52C99.5528 16.64 97.2728 17.2 94.4728 17.2ZM117.525 52V48.1C118.645 48.1 119.445 47.88 119.925 47.44C120.445 47 120.765 46.38 120.885 45.58C121.045 44.74 121.125 43.8 121.125 42.76V31.66C121.125 31.1 121.145 30.3 121.185 29.26C121.225 28.22 121.285 27.26 121.365 26.38C120.725 26.42 120.025 26.46 119.265 26.5C118.505 26.54 117.905 26.56 117.465 26.56V22H133.185V25.9C132.065 25.9 131.245 26.12 130.725 26.56C130.245 27 129.945 27.62 129.825 28.42C129.705 29.22 129.645 30.16 129.645 31.24V34.06H132.525L136.845 29.08C137.365 28.52 137.785 28.04 138.105 27.64C138.465 27.24 138.825 26.88 139.185 26.56H136.005V22H149.505V25.84C148.105 26 146.865 26.34 145.785 26.86C144.705 27.34 143.765 27.92 142.965 28.6C142.205 29.28 141.545 29.94 140.985 30.58L137.145 34.84C137.745 35.16 138.325 35.6 138.885 36.16C139.485 36.68 140.205 37.5 141.045 38.62L145.065 43.9C145.305 44.18 145.605 44.56 145.965 45.04C146.365 45.52 146.805 46 147.285 46.48C147.765 46.92 148.285 47.3 148.845 47.62C149.405 47.94 149.985 48.1 150.585 48.1V52H143.685C142.405 52 141.285 51.56 140.325 50.68C139.365 49.76 138.265 48.46 137.025 46.78C136.305 45.82 135.545 44.8 134.745 43.72C133.985 42.6 133.265 41.56 132.585 40.6C131.945 39.6 131.425 38.82 131.025 38.26L129.645 38.32V42.34C129.645 42.9 129.625 43.7 129.585 44.74C129.545 45.74 129.485 46.7 129.405 47.62C130.045 47.54 130.745 47.5 131.505 47.5C132.265 47.46 132.865 47.44 133.305 47.44V52H117.525ZM172.356 52C172.276 51.44 172.216 50.98 172.176 50.62C172.176 50.22 172.156 49.76 172.116 49.24C170.756 50.6 169.316 51.56 167.796 52.12C166.276 52.68 164.736 52.96 163.176 52.96C160.616 52.96 158.616 52.2 157.176 50.68C155.736 49.16 155.016 47.26 155.016 44.98C155.016 43.06 155.496 41.42 156.456 40.06C157.456 38.7 158.756 37.6 160.356 36.76C161.996 35.88 163.796 35.22 165.756 34.78C167.756 34.3 169.756 34.02 171.756 33.94V30.82C171.756 29.78 171.616 28.84 171.336 28C171.096 27.16 170.656 26.5 170.016 26.02C169.416 25.54 168.556 25.32 167.436 25.36C166.676 25.4 165.936 25.56 165.216 25.84C164.496 26.12 163.876 26.52 163.356 27.04C163.676 27.4 163.876 27.8 163.956 28.24C164.036 28.64 164.076 29 164.076 29.32C164.076 30.12 163.756 30.96 163.116 31.84C162.476 32.68 161.456 33.08 160.056 33.04C158.856 33 157.936 32.58 157.296 31.78C156.656 30.98 156.336 30.04 156.336 28.96C156.336 27.36 156.896 25.98 158.016 24.82C159.176 23.62 160.716 22.7 162.636 22.06C164.556 21.38 166.676 21.04 168.996 21.04C172.516 21.04 175.236 21.96 177.156 23.8C179.116 25.6 180.096 28.5 180.096 32.5C180.096 33.86 180.096 35.02 180.096 35.98C180.096 36.94 180.076 37.9 180.036 38.86C180.036 39.82 180.036 40.98 180.036 42.34C180.036 42.9 180.016 43.7 179.976 44.74C179.936 45.74 179.876 46.7 179.796 47.62C180.476 47.54 181.196 47.5 181.956 47.5C182.716 47.46 183.296 47.44 183.696 47.44V52H172.356ZM171.696 38.2C170.576 38.32 169.516 38.52 168.516 38.8C167.516 39.08 166.636 39.46 165.876 39.94C165.156 40.42 164.576 41 164.136 41.68C163.736 42.36 163.536 43.12 163.536 43.96C163.576 45.08 163.936 45.88 164.616 46.36C165.296 46.84 166.076 47.08 166.956 47.08C167.876 47.08 168.736 46.88 169.536 46.48C170.336 46.08 171.056 45.56 171.696 44.92C171.696 44.52 171.696 44.14 171.696 43.78C171.696 43.38 171.696 42.98 171.696 42.58C171.696 41.86 171.696 41.14 171.696 40.42C171.696 39.66 171.696 38.92 171.696 38.2ZM193.14 52.84C191.3 52.84 189.78 52.34 188.58 51.34C187.38 50.34 186.78 49.04 186.78 47.44C186.78 46.12 187.16 45.12 187.92 44.44C188.68 43.72 189.68 43.36 190.92 43.36C192.2 43.36 193.1 43.7 193.62 44.38C194.18 45.06 194.46 45.8 194.46 46.6C194.46 47.12 194.4 47.52 194.28 47.8C194.16 48.04 194.02 48.26 193.86 48.46C193.98 48.58 194.18 48.64 194.46 48.64C195.54 48.64 196.48 47.74 197.28 45.94C198.08 44.14 198.74 41.56 199.26 38.2C199.78 34.84 200.18 30.8 200.46 26.08L194.76 26.56V22H224.22V25.9C223.1 25.9 222.28 26.12 221.76 26.56C221.28 27 220.96 27.62 220.8 28.42C220.68 29.22 220.62 30.16 220.62 31.24V42.34C220.62 42.9 220.6 43.7 220.56 44.74C220.52 45.74 220.46 46.7 220.38 47.62L224.28 47.44V52H208.5V48.1C209.62 48.1 210.42 47.88 210.9 47.44C211.42 47 211.74 46.38 211.86 45.58C212.02 44.74 212.1 43.8 212.1 42.76V31.66C212.1 31.1 212.12 30.36 212.16 29.44C212.2 28.48 212.26 27.58 212.34 26.74H207.84C206.88 26.74 206.2 26.9 205.8 27.22C205.4 27.54 205.16 28.2 205.08 29.2C204.84 33.2 204.4 36.68 203.76 39.64C203.16 42.6 202.36 45.06 201.36 47.02C200.4 48.98 199.22 50.44 197.82 51.4C196.46 52.36 194.9 52.84 193.14 52.84Z" fill="#2F70D9"/>
<path d="M188 2.5L189.402 1.41732C190.475 0.58834 191.994 0.624648 193.04 1.48761V1.48761C194.095 2.35854 195.635 2.37093 196.691 1.5V1.5C197.747 0.629068 199.272 0.629068 200.327 1.5V1.5C201.383 2.37093 202.908 2.37093 203.964 1.5V1.5C205.019 0.629068 206.544 0.629068 207.6 1.5V1.5C208.656 2.37093 210.181 2.37093 211.236 1.5V1.5C212.292 0.629067 213.817 0.629068 214.873 1.5V1.5C215.928 2.37093 217.453 2.37093 218.509 1.5V1.5C219.565 0.629068 221.09 0.629443 222.146 1.50037V1.50037C223.201 2.37107 224.726 2.37219 225.782 1.50253L227 0.5" stroke="#2F70D9" stroke-width="2" stroke-linecap="round"/>
<path d="M150.03 8.14227V10.1155H146.455V17.1855H144V8.14227H150.03ZM159.782 12.6515C159.782 13.3485 159.698 13.9835 159.529 14.5567C159.364 15.1257 159.104 15.6165 158.75 16.0288C158.395 16.4412 157.94 16.7588 157.383 16.9814C156.826 17.2 156.16 17.3092 155.385 17.3092C154.627 17.3092 153.969 17.2 153.413 16.9814C152.86 16.7588 152.405 16.4433 152.046 16.035C151.687 15.6227 151.421 15.1299 151.248 14.5567C151.075 13.9835 150.988 13.3443 150.988 12.6392C150.988 11.699 151.143 10.8824 151.452 10.1897C151.765 9.49278 152.248 8.95464 152.899 8.57525C153.551 8.19175 154.384 8 155.398 8C156.428 8 157.265 8.19175 157.909 8.57525C158.556 8.95876 159.03 9.49896 159.331 10.1959C159.632 10.8928 159.782 11.7113 159.782 12.6515ZM153.561 12.6515C153.561 13.1959 153.623 13.6639 153.747 14.0557C153.87 14.4474 154.066 14.7484 154.334 14.9588C154.602 15.1691 154.952 15.2742 155.385 15.2742C155.835 15.2742 156.191 15.1691 156.455 14.9588C156.723 14.7484 156.915 14.4474 157.03 14.0557C157.15 13.6639 157.21 13.1959 157.21 12.6515C157.21 11.835 157.074 11.1897 156.802 10.7155C156.529 10.2413 156.062 10.0041 155.398 10.0041C154.957 10.0041 154.6 10.1113 154.328 10.3258C154.06 10.5402 153.864 10.8453 153.74 11.2412C153.621 11.6371 153.561 12.1072 153.561 12.6515ZM165.441 10.0165C165.153 10.0165 164.895 10.0783 164.668 10.2021C164.441 10.3216 164.248 10.4969 164.087 10.7278C163.926 10.9588 163.802 11.2412 163.716 11.5753C163.633 11.9051 163.592 12.2804 163.592 12.701C163.592 13.2701 163.664 13.7485 163.809 14.136C163.953 14.5237 164.171 14.8165 164.464 15.0144C164.761 15.2124 165.132 15.3113 165.577 15.3113C165.981 15.3113 166.369 15.2556 166.74 15.1443C167.115 15.033 167.492 14.899 167.872 14.7423V16.8082C167.472 16.9855 167.061 17.1134 166.641 17.1918C166.225 17.2701 165.781 17.3092 165.311 17.3092C164.33 17.3092 163.526 17.1154 162.899 16.7278C162.277 16.3361 161.817 15.7938 161.52 15.101C161.228 14.4082 161.081 13.6041 161.081 12.6887C161.081 12.0041 161.176 11.3773 161.366 10.8082C161.559 10.2392 161.842 9.74639 162.213 9.32989C162.584 8.90927 163.042 8.58557 163.586 8.35876C164.134 8.12783 164.761 8.01237 165.466 8.01237C165.903 8.01237 166.363 8.06392 166.845 8.16701C167.331 8.26598 167.806 8.4268 168.267 8.64948L167.519 10.5732C167.189 10.4165 166.855 10.2845 166.517 10.1773C166.179 10.0701 165.82 10.0165 165.441 10.0165ZM173.629 17.1855H171.186V10.1402H168.979V8.14227H175.831V10.1402H173.629V17.1855ZM177.124 8.14227H179.399V12.2804C179.399 12.466 179.397 12.6619 179.393 12.868C179.389 13.0701 179.383 13.2701 179.374 13.4681C179.366 13.666 179.356 13.8536 179.344 14.0309C179.331 14.2082 179.317 14.3649 179.3 14.501H179.35L183.073 8.14227H185.874V17.1855H183.592V13.2701C183.592 13.101 183.594 12.9093 183.598 12.6949C183.606 12.4804 183.615 12.2598 183.623 12.033C183.636 11.8062 183.648 11.5876 183.66 11.3773C183.677 11.167 183.693 10.9835 183.71 10.8268H183.654L179.931 17.1855H177.124V8.14227ZM195.584 17.1855H193.128V13.499H190.29V17.1855H187.835V8.14227H190.29V11.4948H193.128V8.14227H195.584V17.1855ZM197.544 8.14227H199.82V12.2804C199.82 12.466 199.818 12.6619 199.814 12.868C199.81 13.0701 199.803 13.2701 199.795 13.4681C199.787 13.666 199.777 13.8536 199.765 14.0309C199.752 14.2082 199.737 14.3649 199.721 14.501H199.77L203.493 8.14227H206.295V17.1855H204.013V13.2701C204.013 13.101 204.015 12.9093 204.019 12.6949C204.027 12.4804 204.035 12.2598 204.044 12.033C204.056 11.8062 204.068 11.5876 204.081 11.3773C204.097 11.167 204.114 10.9835 204.13 10.8268H204.075L200.352 17.1855H197.544V8.14227ZM217.576 15.1814V20H215.194V17.1855H208.256V8.14227H210.711V15.1814H213.222V8.14227H215.677V15.1814H217.576ZM224.329 17.1855L223.884 15.4907H220.946L220.488 17.1855H217.804L220.754 8.10515H224.013L227 17.1855H224.329ZM223.376 13.4866L222.987 12.002C222.945 11.8412 222.886 11.6124 222.807 11.3154C222.729 11.0144 222.651 10.7052 222.572 10.3876C222.498 10.066 222.44 9.80206 222.399 9.59587C222.362 9.80206 222.309 10.0577 222.238 10.3629C222.173 10.6639 222.102 10.9629 222.028 11.2598C221.958 11.5567 221.896 11.8041 221.843 12.002L221.453 13.4866H223.376Z" fill="#686868"/>
</g>
<defs>
<clipPath id="clip0_50_233">
<rect width="227" height="52" fill="white"/>
</clipPath>
</defs>
</svg>
